<mxGraphModel><root><mxCell id="0"/><mxCell id="1" parent="0"/><mxCell id="2" value="Attendance Manager App" style="whiteSpace=wrap;strokeWidth=2;" vertex="1" parent="1"><mxGeometry x="261" width="194" height="33" as="geometry"/></mxCell><mxCell id="3" value="Atte" style="ellipse;aspect=fixed;strokeWidth=2;whiteSpace=wrap;" vertex="1" parent="1"><mxGeometry x="335" y="102" width="47" height="47" as="geometry"/></mxCell><mxCell id="4" value="Manage Attendance" style="ellipse;aspect=fixed;strokeWidth=2;whiteSpace=wrap;" vertex="1" parent="1"><mxGeometry y="217" width="156" height="156" as="geometry"/></mxCell><mxCell id="5" value="Manage Profile" style="ellipse;aspect=fixed;strokeWidth=2;whiteSpace=wrap;" vertex="1" parent="1"><mxGeometry x="206" y="234" width="122" height="122" as="geometry"/></mxCell><mxCell id="6" value="View Summary" style="ellipse;aspect=fixed;strokeWidth=2;whiteSpace=wrap;" vertex="1" parent="1"><mxGeometry x="390" y="235" width="121" height="121" as="geometry"/></mxCell><mxCell id="7" value="Update Attendance" style="ellipse;aspect=fixed;strokeWidth=2;whiteSpace=wrap;" vertex="1" parent="1"><mxGeometry x="561" y="219" width="153" height="153" as="geometry"/></mxCell><mxCell id="8" value="Student login details" style="curved=1;startArrow=none;endArrow=block;exitX=0.5;exitY=1.01;entryX=0.5;entryY=-0.01;" edge="1" parent="1" source="2" target="3"><mxGeometry relative="1" as="geometry"><Array as="points"/></mxGeometry></mxCell><mxCell id="9" value="Attendance details" style="curved=1;startArrow=none;endArrow=block;exitX=0;exitY=0.6;entryX=0.5;entryY=0;" edge="1" parent="1" source="3" target="4"><mxGeometry relative="1" as="geometry"><Array as="points"><mxPoint x="78" y="183"/></Array></mxGeometry></mxCell><mxCell id="10" value="Profile information" style="curved=1;startArrow=none;endArrow=block;exitX=0;exitY=0.81;entryX=0.5;entryY=0;" edge="1" parent="1" source="3" target="5"><mxGeometry relative="1" as="geometry"><Array as="points"><mxPoint x="267" y="183"/></Array></mxGeometry></mxCell><mxCell id="11" value="View attendance summary" style="curved=1;startArrow=none;endArrow=block;exitX=1;exitY=0.81;entryX=0.5;entryY=0;" edge="1" parent="1" source="3" target="6"><mxGeometry relative="1" as="geometry"><Array as="points"><mxPoint x="450" y="183"/></Array></mxGeometry></mxCell><mxCell id="12" value="Update attendance" style="curved=1;startArrow=none;endArrow=block;exitX=1;exitY=0.6;entryX=0.5;entryY=0;" edge="1" parent="1" source="3" target="7"><mxGeometry relative="1" as="geometry"><Array as="points"><mxPoint x="637" y="183"/></Array></mxGeometry></mxCell></root></mxGraphModel>